<svg width="540" height="553" viewBox="0 0 540 553" fill="none" xmlns="http://www.w3.org/2000/svg">
<path d="M62.0401 307.19L41.6919 289.362L43.6689 287.105L33.4948 278.191C30.5709 275.629 27.8737 272.942 25.3984 270.148L23.1531 272.138C17.7797 266.074 13.4089 259.517 10.0041 252.649L12.6919 251.316C9.26662 244.407 6.85295 237.171 5.41201 229.806L2.46784 230.383C0.949325 222.622 0.4754 214.727 1.00262 206.916L3.99581 207.118C4.5082 199.528 5.99829 192.019 8.42327 184.807L5.57974 183.851C8.07492 176.431 11.5276 169.315 15.8945 162.723L18.3956 164.379C22.5393 158.123 27.5332 152.357 33.3373 147.279L31.3619 145.021C37.1312 139.974 43.6749 135.582 50.9566 132.03L52.272 134.726C55.6264 133.089 59.1454 131.636 62.8258 130.385L75.633 126.031L74.6674 123.19L100.282 114.483L101.247 117.323L126.861 108.615L125.896 105.775L151.51 97.0671L152.476 99.9074L178.09 91.1997L177.124 88.3593L202.739 79.6516L203.704 82.492L229.318 73.7842L228.353 70.9438L253.967 62.2361L254.933 65.0764L280.547 56.3687L279.581 53.5284L305.196 44.8206L306.161 47.661L331.775 38.9532L330.81 36.1129L356.424 27.4051L357.39 30.2455L383.004 21.5377L382.038 18.6974L407.652 9.98963L408.618 12.83L421.425 8.47611C425.106 7.22491 428.782 6.23266 432.438 5.4857L431.838 2.54644C439.776 0.924895 447.641 0.41836 455.291 0.903675L455.101 3.89766C462.797 4.38596 470.271 5.91371 477.369 8.34793L478.342 5.51012C485.822 8.07536 492.896 11.6125 499.397 15.9743L497.725 18.4655C504.043 22.7046 509.801 27.7496 514.833 33.4553L517.083 31.4708C522.262 37.3418 526.698 43.8898 530.224 50.9679L527.539 52.3056C530.885 59.0222 533.381 66.2301 534.877 73.7955L537.82 73.2137C539.306 80.7337 539.838 88.5966 539.273 96.6791L536.281 96.4701C536.021 100.193 535.52 103.968 534.764 107.781L532.131 121.049L535.073 121.633L529.807 148.169L526.865 147.585L521.599 174.122L524.541 174.706L519.275 201.242L516.333 200.658L511.067 227.195L514.009 227.779L508.743 254.315L505.801 253.731L500.535 280.268L503.477 280.852L498.211 307.388L495.269 306.804L490.003 333.341L492.945 333.925L487.679 360.461L484.737 359.877L479.471 386.414L482.413 386.997L477.147 413.534L474.205 412.95L468.939 439.486L471.881 440.07L466.615 466.607L463.673 466.023L461.04 479.291C460.283 483.104 459.305 486.784 458.123 490.324L460.969 491.274C458.404 498.959 454.91 506.023 450.665 512.406L448.167 510.744C443.896 517.165 438.836 522.874 433.179 527.804L435.15 530.065C429.188 535.261 422.588 539.619 415.56 543.067L414.239 540.374C407.409 543.726 400.161 546.19 392.703 547.695L393.297 550.636C385.623 552.185 377.734 552.753 369.841 552.268L370.026 549.273C362.536 548.813 355.045 547.371 347.746 544.883L346.778 547.723C339.522 545.25 332.447 541.779 325.73 537.249L327.407 534.762C324.313 532.675 321.294 530.355 318.37 527.793L308.196 518.878L306.219 521.135L285.871 503.306L287.848 501.05L267.5 483.221L265.523 485.477L245.174 467.649L247.151 465.392L226.803 447.564L224.826 449.82L204.478 431.991L206.455 429.735L186.107 411.906L184.13 414.163L163.781 396.334L165.758 394.077L145.41 376.249L143.433 378.505L123.085 360.676L125.062 358.42L104.714 340.591L102.737 342.848L82.3884 325.019L84.3654 322.763L64.0171 304.934L62.0401 307.19Z" stroke="#FFDB6F" stroke-width="6" stroke-dasharray="26 26"/>
</svg>
