<svg width="84" height="84" viewBox="0 0 84 84" fill="none" xmlns="http://www.w3.org/2000/svg">
<path opacity="0.84" d="M0 42.0001C0 65.1958 18.8042 84 42 84C65.1971 84 84 65.1958 84 42.0001C84 18.803 65.1971 0.000137329 42 0.000137329C18.8042 0.000137329 0 18.803 0 42.0001ZM78.8327 42.0001C78.8327 62.2637 62.2637 78.75 41.9998 78.75C21.7361 78.75 5.24984 62.2637 5.24984 42.0001C5.24984 21.7364 21.7362 5.25012 41.9998 5.25012C62.2634 5.25012 78.8327 21.7364 78.8327 42.0001ZM39.375 23.6251L39.375 39.3751L23.625 39.3751C22.176 39.3751 21 40.5511 21 42.0001C21 43.4491 22.176 44.6251 23.625 44.6251L39.375 44.6251L39.375 60.375C39.375 61.824 40.551 63 42 63C43.449 63 44.625 61.824 44.625 60.375L44.625 44.6251L60.375 44.6251C61.824 44.6251 63 43.4491 63 42.0001C63 40.5511 61.824 39.3751 60.375 39.3751L44.625 39.3751L44.625 23.6251C44.625 22.1761 43.449 21.0001 42 21.0001C40.551 21.0001 39.375 22.1761 39.375 23.6251Z" fill="#8B5CF6"/>
</svg>
