<svg width="40" height="41" viewBox="0 0 40 41" fill="none" xmlns="http://www.w3.org/2000/svg">
<mask id="path-1-inside-1_465_15875" fill="white">
<path d="M35 20.5C35 20.8315 34.8683 21.1495 34.6339 21.3839C34.3995 21.6183 34.0815 21.75 33.75 21.75H6.25C5.91848 21.75 5.60054 21.6183 5.36612 21.3839C5.1317 21.1495 5 20.8315 5 20.5C5 20.1685 5.1317 19.8505 5.36612 19.6161C5.60054 19.3817 5.91848 19.25 6.25 19.25H33.75C34.0815 19.25 34.3995 19.3817 34.6339 19.6161C34.8683 19.8505 35 20.1685 35 20.5ZM6.25 11.75H33.75C34.0815 11.75 34.3995 11.6183 34.6339 11.3839C34.8683 11.1495 35 10.8315 35 10.5C35 10.1685 34.8683 9.85054 34.6339 9.61612C34.3995 9.3817 34.0815 9.25 33.75 9.25H6.25C5.91848 9.25 5.60054 9.3817 5.36612 9.61612C5.1317 9.85054 5 10.1685 5 10.5C5 10.8315 5.1317 11.1495 5.36612 11.3839C5.60054 11.6183 5.91848 11.75 6.25 11.75ZM33.75 29.25H6.25C5.91848 29.25 5.60054 29.3817 5.36612 29.6161C5.1317 29.8505 5 30.1685 5 30.5C5 30.8315 5.1317 31.1495 5.36612 31.3839C5.60054 31.6183 5.91848 31.75 6.25 31.75H33.75C34.0815 31.75 34.3995 31.6183 34.6339 31.3839C34.8683 31.1495 35 30.8315 35 30.5C35 30.1685 34.8683 29.8505 34.6339 29.6161C34.3995 29.3817 34.0815 29.25 33.75 29.25Z"/>
</mask>
<path d="M35 20.5C35 20.8315 34.8683 21.1495 34.6339 21.3839C34.3995 21.6183 34.0815 21.75 33.75 21.75H6.25C5.91848 21.75 5.60054 21.6183 5.36612 21.3839C5.1317 21.1495 5 20.8315 5 20.5C5 20.1685 5.1317 19.8505 5.36612 19.6161C5.60054 19.3817 5.91848 19.25 6.25 19.25H33.75C34.0815 19.25 34.3995 19.3817 34.6339 19.6161C34.8683 19.8505 35 20.1685 35 20.5ZM6.25 11.75H33.75C34.0815 11.75 34.3995 11.6183 34.6339 11.3839C34.8683 11.1495 35 10.8315 35 10.5C35 10.1685 34.8683 9.85054 34.6339 9.61612C34.3995 9.3817 34.0815 9.25 33.75 9.25H6.25C5.91848 9.25 5.60054 9.3817 5.36612 9.61612C5.1317 9.85054 5 10.1685 5 10.5C5 10.8315 5.1317 11.1495 5.36612 11.3839C5.60054 11.6183 5.91848 11.75 6.25 11.75ZM33.75 29.25H6.25C5.91848 29.25 5.60054 29.3817 5.36612 29.6161C5.1317 29.8505 5 30.1685 5 30.5C5 30.8315 5.1317 31.1495 5.36612 31.3839C5.60054 31.6183 5.91848 31.75 6.25 31.75H33.75C34.0815 31.75 34.3995 31.6183 34.6339 31.3839C34.8683 31.1495 35 30.8315 35 30.5C35 30.1685 34.8683 29.8505 34.6339 29.6161C34.3995 29.3817 34.0815 29.25 33.75 29.25Z" fill="#6D28D9"/>
<path d="M5 10.5H2H5ZM5 30.5H2H5ZM32 20.5C32 20.0359 32.1844 19.5908 32.5126 19.2626L36.7552 23.5052C37.5522 22.7082 38 21.6272 38 20.5H32ZM32.5126 19.2626C32.8408 18.9344 33.2859 18.75 33.75 18.75V24.75C34.8772 24.75 35.9582 24.3022 36.7552 23.5052L32.5126 19.2626ZM33.75 18.75H6.25V24.75H33.75V18.75ZM6.25 18.75C6.71412 18.75 7.15924 18.9344 7.48744 19.2626L3.2448 23.5052C4.04183 24.3022 5.12284 24.75 6.25 24.75V18.75ZM7.48744 19.2626C7.81563 19.5908 8 20.0359 8 20.5H2C2 21.6272 2.44777 22.7082 3.2448 23.5052L7.48744 19.2626ZM8 20.5C8 20.9641 7.81562 21.4093 7.48744 21.7374L3.2448 17.4948C2.44777 18.2918 2 19.3728 2 20.5H8ZM7.48744 21.7374C7.15925 22.0656 6.71413 22.25 6.25 22.25V16.25C5.12283 16.25 4.04182 16.6978 3.2448 17.4948L7.48744 21.7374ZM6.25 22.25H33.75V16.25H6.25V22.25ZM33.75 22.25C33.2859 22.25 32.8408 22.0656 32.5126 21.7374L36.7552 17.4948C35.9582 16.6978 34.8772 16.25 33.75 16.25V22.25ZM32.5126 21.7374C32.1844 21.4092 32 20.9641 32 20.5H38C38 19.3728 37.5522 18.2918 36.7552 17.4948L32.5126 21.7374ZM6.25 14.75H33.75V8.75H6.25V14.75ZM33.75 14.75C34.8772 14.75 35.9582 14.3022 36.7552 13.5052L32.5126 9.26256C32.8408 8.93437 33.2859 8.75 33.75 8.75V14.75ZM36.7552 13.5052C37.5522 12.7082 38 11.6272 38 10.5H32C32 10.0359 32.1844 9.59076 32.5126 9.26256L36.7552 13.5052ZM38 10.5C38 9.37284 37.5522 8.29183 36.7552 7.4948L32.5126 11.7374C32.1844 11.4092 32 10.9641 32 10.5H38ZM36.7552 7.4948C35.9582 6.69777 34.8772 6.25 33.75 6.25V12.25C33.2859 12.25 32.8408 12.0656 32.5126 11.7374L36.7552 7.4948ZM33.75 6.25H6.25V12.25H33.75V6.25ZM6.25 6.25C5.12283 6.25 4.04182 6.69777 3.2448 7.4948L7.48744 11.7374C7.15925 12.0656 6.71413 12.25 6.25 12.25V6.25ZM3.2448 7.4948C2.44777 8.29182 2 9.37283 2 10.5H8C8 10.9641 7.81562 11.4093 7.48744 11.7374L3.2448 7.4948ZM2 10.5C2 11.6272 2.44777 12.7082 3.2448 13.5052L7.48744 9.26256C7.81562 9.59075 8 10.0359 8 10.5H2ZM3.2448 13.5052C4.04182 14.3022 5.12283 14.75 6.25 14.75V8.75C6.71413 8.75 7.15925 8.93438 7.48744 9.26256L3.2448 13.5052ZM33.75 26.25H6.25V32.25H33.75V26.25ZM6.25 26.25C5.12284 26.25 4.04183 26.6978 3.2448 27.4948L7.48744 31.7374C7.15924 32.0656 6.71412 32.25 6.25 32.25V26.25ZM3.2448 27.4948C2.44777 28.2918 2 29.3728 2 30.5H8C8 30.9641 7.81563 31.4092 7.48744 31.7374L3.2448 27.4948ZM2 30.5C2 31.6272 2.44777 32.7082 3.2448 33.5052L7.48744 29.2626C7.81563 29.5908 8 30.0359 8 30.5H2ZM3.2448 33.5052C4.04183 34.3022 5.12284 34.75 6.25 34.75V28.75C6.71412 28.75 7.15924 28.9344 7.48744 29.2626L3.2448 33.5052ZM6.25 34.75H33.75V28.75H6.25V34.75ZM33.75 34.75C34.8772 34.75 35.9582 34.3022 36.7552 33.5052L32.5126 29.2626C32.8408 28.9344 33.2859 28.75 33.75 28.75V34.75ZM36.7552 33.5052C37.5522 32.7082 38 31.6272 38 30.5H32C32 30.0359 32.1844 29.5908 32.5126 29.2626L36.7552 33.5052ZM38 30.5C38 29.3728 37.5522 28.2918 36.7552 27.4948L32.5126 31.7374C32.1844 31.4092 32 30.9641 32 30.5H38ZM36.7552 27.4948C35.9582 26.6978 34.8772 26.25 33.75 26.25V32.25C33.2859 32.25 32.8408 32.0656 32.5126 31.7374L36.7552 27.4948Z" fill="#6D28D9" mask="url(#path-1-inside-1_465_15875)"/>
</svg>
