<?xml version="1.0" encoding="iso-8859-1"?>
<!-- Uploaded to: SVG Repo, www.svgrepo.com, Generator: SVG Repo Mixer Tools -->
<!DOCTYPE svg PUBLIC "-//W3C//DTD SVG 1.1//EN" "http://www.w3.org/Graphics/SVG/1.1/DTD/svg11.dtd">
<svg fill="#5B21B6" version="1.1" id="Capa_1" xmlns="http://www.w3.org/2000/svg" xmlns:xlink="http://www.w3.org/1999/xlink"
	 width="32px" height="32px" viewBox="0 0 61.589 61.589"
	 xml:space="preserve">
<g>
	<g>
		<g>
			<path d="M41.048,23.363c-0.247-2.117-1.438-3.937-3.27-4.991c-0.48-0.28-1.006-0.488-1.587-0.639
				c0.849-3.41-0.254-5.39-1.344-6.458c-1.273-1.248-2.915-1.69-3.702-1.898c-0.887-0.24-1.95-0.481-3.111-0.481
				c-1.649,0-3.093,0.495-4.236,1.442c-1.139-0.947-2.583-1.442-4.231-1.442c-1.161,0-2.224,0.244-3.109,0.481
				c-0.789,0.208-2.432,0.648-3.704,1.898c-1.088,1.065-2.192,3.045-1.341,6.453c-0.582,0.148-1.109,0.36-1.59,0.641
				c-1.832,1.054-3.024,2.872-3.269,4.991c-0.201,1.736,0.233,3.586,1.252,5.349c1.533,2.662,4.669,3.978,7.208,4.369
				c0.648,3.574,4.332,7.356,8.787,7.36c4.455,0,8.141-3.784,8.793-7.36c2.537-0.391,5.671-1.707,7.208-4.369
				C40.814,26.949,41.248,25.099,41.048,23.363z M38.05,27.707c-1.233,2.137-4.133,3.278-6.457,3.462l-0.89,0.071l-0.037,0.894
				c-0.114,2.833-3.308,6.293-6.873,6.293v1.009v-1.009c-3.561-0.005-6.756-3.463-6.868-6.293l-0.039-0.894l-0.89-0.071
				c-2.327-0.185-5.219-1.325-6.456-3.465c-0.801-1.387-1.145-2.803-0.992-4.108c0.168-1.476,1.001-2.744,2.274-3.481
				c0.539-0.308,1.184-0.504,1.978-0.591l1.241-0.132l-0.393-1.187c-0.093-0.28-0.178-0.552-0.242-0.798
				c-0.565-2.107-0.321-3.645,0.753-4.694c0.894-0.876,2.14-1.209,2.815-1.392c0.757-0.203,1.658-0.408,2.586-0.408
				c1.435,0,2.635,0.516,3.467,1.49l0.764,0.896l0.767-0.896c0.835-0.974,2.035-1.49,3.469-1.49c0.926,0,1.83,0.206,2.587,0.408
				c0.671,0.183,1.921,0.516,2.812,1.392c1.074,1.049,1.321,2.584,0.76,4.692c-0.068,0.244-0.153,0.518-0.246,0.801l-0.395,1.187
				l1.239,0.132c0.794,0.087,1.439,0.283,1.979,0.591c1.275,0.737,2.102,2.005,2.274,3.481
				C39.197,24.898,38.851,26.317,38.05,27.707z"/>
			<path d="M27.573,22.702c1.882,0.504,3.971-3.212,4.669-5.817c0.698-2.6-0.26-3.106-2.142-3.611
				c-1.882-0.504-3.974-0.819-4.671,1.786C24.731,17.663,25.691,22.198,27.573,22.702z"/>
			<path d="M23.796,30.772c-2.694,0-4.881-0.349-4.881,1.209s2.188,4.43,4.881,4.43c2.698,0,4.886-2.872,4.886-4.43
				S26.494,30.772,23.796,30.772z"/>
			<path d="M20.023,22.702c1.882-0.504,2.842-5.039,2.144-7.642c-0.7-2.603-2.79-2.288-4.671-1.786
				c-1.884,0.502-2.842,1.011-2.142,3.611C16.052,19.49,18.139,23.206,20.023,22.702z"/>
			<path d="M11.834,21.865c-1.497,0.86-1.736,2.769-0.543,4.833c1.193,2.064,5.388,3.047,6.884,2.185
				c1.494-0.864-0.278-3.241-1.476-5.306C15.506,21.509,13.328,21.002,11.834,21.865z"/>
			<path d="M35.76,21.865c-1.494-0.862-3.67-0.354-4.865,1.71c-1.195,2.067-2.968,4.441-1.474,5.306
				c1.499,0.862,5.693-0.119,6.885-2.186C37.496,24.631,37.259,22.725,35.76,21.865z"/>
		</g>
		<path d="M41.287,7.067C31.857-2.356,16.51-2.356,7.08,7.072c-9.441,9.439-9.439,24.779,0,34.219
			c8.839,8.837,22.827,9.276,32.327,1.535l3.929,3.925l-1.144,1.144l13.696,13.695l5.7-5.7L47.896,42.191l-1.139,1.139l-3.935-3.933
			C50.571,29.903,50.143,15.922,41.287,7.067z M40.281,37.458l-2.824,2.824c-8.23,6.772-20.406,6.414-28.093-1.272
			c-8.178-8.173-8.18-21.483,0-29.652c8.17-8.173,21.474-8.173,29.642-0.004C46.7,17.044,47.059,29.221,40.281,37.458z"/>
	</g>
</g>
</svg>
